<?xml version="1.0" standalone="no"?>
<!DOCTYPE svg PUBLIC "-//W3C//DTD SVG 20010904//EN"
 "http://www.w3.org/TR/2001/REC-SVG-20010904/DTD/svg10.dtd">
<svg version="1.0" xmlns="http://www.w3.org/2000/svg"
 width="1278.000000pt" height="1299.000000pt" viewBox="0 0 1278.000000 1299.000000"
 preserveAspectRatio="xMidYMid meet">
<metadata>
Created by potrace 1.16, written by Peter Selinger 2001-2019
</metadata>
<g transform="translate(0.000000,1299.000000) scale(0.100000,-0.100000)"
fill="#000000" stroke="none">
<path d="M2383 12916 c-169 -55 -322 -264 -385 -526 -18 -74 -20 -106 -15
-255 6 -190 23 -286 85 -485 l38 -122 -136 -272 c-474 -943 -699 -1685 -787
-2591 -25 -256 -24 -860 0 -1105 44 -434 126 -784 263 -1133 131 -331 273
-606 704 -1362 144 -253 274 -485 287 -515 43 -94 82 -220 106 -335 20 -102
22 -135 21 -465 -1 -533 -19 -893 -80 -1595 -46 -541 -82 -793 -134 -951 -27
-81 -70 -120 -205 -186 -134 -65 -205 -130 -256 -233 -32 -65 -34 -76 -34
-170 0 -85 3 -106 23 -142 31 -59 77 -109 127 -139 96 -56 4 -54 2237 -54
1325 0 2244 -4 2585 -12 702 -17 1501 -16 1713 0 650 51 1107 153 1536 345
547 243 1026 684 1278 1177 182 355 270 729 283 1205 19 711 -164 1521 -537
2380 -99 228 -189 395 -455 845 -194 328 -283 485 -360 640 -32 63 -114 209
-183 324 -219 366 -274 504 -275 691 -1 123 17 198 77 320 56 112 89 153 156
189 75 41 176 55 395 56 208 0 281 12 346 55 41 26 79 95 79 141 -1 121 -191
269 -399 310 -123 24 -330 15 -466 -20 -185 -48 -330 -132 -461 -268 -89 -92
-143 -167 -196 -273 -144 -287 -179 -619 -100 -935 43 -169 97 -299 275 -655
247 -496 473 -1056 714 -1770 186 -553 265 -847 319 -1195 26 -164 26 -554 1
-695 -65 -358 -246 -666 -520 -888 -220 -179 -523 -337 -757 -397 -109 -28
-114 -27 -106 13 26 126 37 933 16 1247 -67 1043 -242 1833 -560 2531 -337
740 -933 1452 -1695 2026 -496 374 -1075 693 -1746 963 -428 172 -575 274
-662 459 -67 142 -28 289 116 434 85 85 178 151 337 237 152 82 223 134 302
219 77 83 129 182 153 291 9 41 28 109 42 150 21 62 25 88 21 150 -7 117 -39
168 -227 357 -163 164 -242 265 -305 391 -61 121 -60 108 -7 215 27 53 54 124
62 159 27 123 9 277 -36 294 -31 12 -82 -8 -149 -59 -37 -28 -96 -72 -130 -96
l-61 -44 -155 6 c-85 3 -272 20 -415 36 -143 16 -327 35 -410 41 -82 6 -205
15 -273 20 -67 6 -145 10 -172 10 l-49 0 -54 83 c-30 45 -137 237 -237 427
-207 390 -246 455 -297 490 -43 30 -144 37 -210 16z m1621 -1579 c53 -27 101
-62 158 -117 109 -103 104 -111 -64 -80 -68 12 -192 26 -276 31 -170 9 -220
24 -236 70 -30 89 64 141 245 136 88 -2 102 -6 173 -40z"/>
</g>
</svg>
