<?xml version="1.0" encoding="utf-8"?>
<svg viewBox="0 0 94.37 122.88" style="enable-background:new 0 0 94.37 122.88" xmlns="http://www.w3.org/2000/svg">
  <defs>
    <style type="text/css">.st0{fill-rule:evenodd;clip-rule:evenodd;}</style>
  </defs>
  <g>
    <path class="st0" d="M 85.82 83.99 L 85.82 69.62 C 86.43 67.01 87.58 65.67 88.87 65.43 C 93.35 64.6 92.63 82.99 85.82 83.99 Z M 64.28 59.42 C 70.11 59.42 74.84 64.15 74.84 69.98 C 74.84 75.81 70.11 80.54 64.28 80.54 C 58.45 80.54 53.72 75.81 53.72 69.98 C 53.72 64.15 58.44 59.42 64.28 59.42 Z M 30 59.42 C 35.83 59.42 40.56 64.15 40.56 69.98 C 40.56 75.81 35.83 80.54 30 80.54 C 24.17 80.54 19.44 75.81 19.44 69.98 C 19.44 64.15 24.17 59.42 30 59.42 Z M 82.96 65.92 L 76.92 66.58 C 77.23 67.69 77.39 68.86 77.39 70.08 C 77.39 73.71 75.92 77 73.54 79.38 C 71.16 81.76 67.87 83.23 64.24 83.23 C 60.61 83.23 57.32 81.76 54.94 79.38 C 52.56 77 51.09 73.71 51.09 70.08 C 51.09 69.73 51.1 69.38 51.13 69.04 C 51.13 68.97 50.88 68.82 50.83 68.77 C 49.57 67.69 48.27 67.22 47.07 67.29 C 45.87 67.36 44.69 67.97 43.67 69.07 L 43.66 69.07 C 43.6 69.13 43.52 69.22 43.43 69.34 C 43.4 69.38 43.36 69.42 43.32 69.45 C 43.33 69.66 43.34 69.87 43.34 70.08 C 43.34 73.71 41.87 77 39.49 79.38 C 37.11 81.76 33.82 83.23 30.19 83.23 C 26.56 83.23 23.27 81.76 20.89 79.38 C 18.47 77 17 73.71 17 70.08 C 17 68.88 17.16 67.71 17.46 66.6 L 11.36 65.84 L 11.36 91.2 C 13.26 100.31 15.6 101.07 21.43 106.78 L 31.55 116.68 C 33.38 118.19 35.44 119.07 37.63 119.59 C 41.48 120.49 54.4 120.78 58.01 119.61 C 60.21 118.9 62.28 117.6 64.2 115.58 L 71.55 108.44 C 78.65 101.55 83.47 98.58 82.96 87.17 L 82.96 65.92 L 82.96 65.92 Z M 30.16 56.92 C 33.79 56.92 37.08 58.39 39.46 60.77 C 40.9 62.21 42.02 63.99 42.66 65.98 C 43.93 65.05 45.36 64.51 46.85 64.43 C 48.5 64.33 50.18 64.78 51.77 65.82 C 52.43 63.9 53.52 62.18 54.92 60.77 C 57.3 58.39 60.59 56.92 64.22 56.92 C 67.85 56.92 71.14 58.39 73.52 60.77 C 74.42 61.67 75.19 62.7 75.8 63.83 L 82.95 63.05 L 82.95 51.25 C 58.87 34 44.05 19.72 23.98 32.43 C 16.84 36.95 14.62 46.22 11.36 51.39 L 11.36 62.97 C 11.43 62.97 11.5 62.97 11.57 62.98 L 18.56 63.85 C 19.17 62.71 19.95 61.68 20.85 60.77 C 23.23 58.4 26.52 56.92 30.16 56.92 Z M 31.89 48.99 C 32.86 48.95 33.67 49.7 33.71 50.66 C 33.75 51.63 33 52.44 32.04 52.48 C 29.36 52.6 27.07 53.15 25.15 54.08 C 23.28 54.98 21.76 56.27 20.55 57.9 C 19.97 58.68 18.88 58.84 18.1 58.26 C 17.32 57.68 17.16 56.59 17.74 55.81 C 19.29 53.72 21.24 52.08 23.63 50.92 C 25.96 49.8 28.71 49.14 31.89 48.99 Z M 63.95 52.14 C 62.98 52.14 62.2 51.35 62.21 50.38 C 62.21 49.41 63 48.63 63.97 48.64 C 66.87 48.65 69.51 49.2 71.89 50.31 C 74.29 51.44 76.39 53.13 78.17 55.44 C 78.76 56.21 78.62 57.3 77.85 57.9 C 77.08 58.49 75.99 58.35 75.39 57.58 C 73.96 55.72 72.29 54.37 70.4 53.48 C 68.5 52.59 66.34 52.15 63.95 52.14 Z M 43.36 82.99 C 42.75 82.48 42.67 81.58 43.18 80.98 C 43.69 80.37 44.59 80.29 45.19 80.8 C 45.9 81.4 46.59 81.71 47.24 81.72 C 47.9 81.73 48.62 81.43 49.39 80.79 C 50 80.29 50.9 80.38 51.4 80.99 C 51.9 81.6 51.81 82.5 51.2 83 C 49.88 84.08 48.55 84.59 47.2 84.58 C 45.87 84.56 44.58 84.02 43.36 82.99 Z M 38.88 101.85 C 38.15 101.46 37.87 100.55 38.26 99.82 C 38.65 99.09 39.56 98.81 40.29 99.2 C 42.61 100.43 44.88 101.05 47.12 101.06 C 49.36 101.07 51.6 100.45 53.85 99.21 C 54.58 98.81 55.49 99.08 55.89 99.8 C 56.29 100.53 56.02 101.44 55.3 101.84 C 52.61 103.33 49.88 104.06 47.12 104.05 C 44.36 104.05 41.61 103.31 38.88 101.85 Z M 8.55 83.99 L 8.55 69.62 C 7.94 67.01 6.79 65.67 5.5 65.43 C 1.01 64.6 1.74 82.99 8.55 83.99 Z M 8.96 86.46 C 8.71 86.5 8.45 86.51 8.19 86.47 C 3.47 85.78 0.93 80 0.32 74.47 C 0.15 72.95 0.12 71.44 0.23 70.08 C 0.34 68.63 0.61 67.29 1.05 66.21 C 1.99 63.85 3.61 62.54 5.96 62.97 C 7.08 63.18 8.11 63.76 8.97 64.74 L 8.97 62.82 L 7.05 61.74 C 6.52 56.51 5.17 50.08 4.32 44.13 C 4.18 43.17 4.1 42.24 4.05 41.32 C 1.98 41.74 0.3 39.81 0 34.4 L 0 25.68 C 1.26 15.25 6.12 11.06 14.09 12.26 C 21.68 4.33 32.39 -0.1 47.13 0.02 C 63.56 -0.3 77.56 3.53 87.73 13.94 C 93.08 19.26 95.35 27.51 93.98 39.24 C 94.04 41.47 93.91 43.8 93.55 46.26 C 92.79 51.55 91.81 57.17 91.51 61.3 L 88.96 62.9 C 91.02 62.75 92.47 64.03 93.33 66.21 C 93.76 67.3 94.03 68.63 94.15 70.08 C 94.25 71.44 94.22 72.94 94.06 74.47 C 93.45 80 90.91 85.78 86.19 86.47 C 85.98 86.5 85.78 86.5 85.58 86.48 L 85.58 87.18 C 85.58 87.21 85.58 87.24 85.58 87.27 C 86.03 98.33 82 102.12 75.77 107.99 C 75 108.72 74.18 109.48 73.41 110.23 L 66.1 117.33 C 65.01 118.47 63.87 119.42 62.68 120.19 C 61.47 120.97 60.21 121.57 58.89 121.99 C 56.94 122.62 52.93 122.88 48.82 122.87 C 44.22 122.86 39.37 122.54 37.17 122.02 C 35.91 121.72 34.68 121.32 33.51 120.77 C 32.33 120.22 31.18 119.51 30.08 118.6 C 30.02 118.55 29.97 118.5 29.91 118.45 L 19.79 108.55 C 18.92 107.7 18.05 106.89 17.27 106.16 C 12.86 102.05 10.77 100.1 9.02 91.69 C 8.98 91.52 8.97 91.35 8.97 91.18 L 8.96 91.18 L 8.96 86.46 Z" style=""/>
  </g>
  <circle style="" cx="29.899" cy="70.484" r="2.325"/>
  <circle style="" cx="64.464" cy="70.312" r="2.325"/>
  <path style="stroke: rgb(0, 0, 0); fill: none;" d="M 24.565 70.362 C 25.84 67.143 35.081 68.487 34.521 70.362"/>
  <path style="stroke: rgb(0, 0, 0); fill: none;" d="M 59.785 68.249 C 61.06 71.468 70.301 70.124 69.741 68.249" transform="matrix(-1, 0, 0, -1, 129.550434, 138.440419)"/>
</svg>