<?xml version="1.0" encoding="utf-8"?>
<!-- Generator: Adobe Illustrator 22.1.0, SVG Export Plug-In . SVG Version: 6.00 Build 0)  -->
<svg version="1.1" id="Layer_1" xmlns="http://www.w3.org/2000/svg" xmlns:xlink="http://www.w3.org/1999/xlink" x="0px" y="0px"
	 viewBox="0 0 32 32" style="enable-background:new 0 0 32 32;" xml:space="preserve">
<title>php</title>
<path d="M9.3,13.6H8.1l-0.7,3.5h1.1c0.7,0,1.3-0.1,1.7-0.4c0.4-0.3,0.6-0.7,0.7-1.4c0.1-0.6,0.1-1.1-0.2-1.3
	C10.5,13.7,10,13.6,9.3,13.6L9.3,13.6z M16,7.6C7.2,7.6,0,11.4,0,16s7.2,8.4,16,8.4s16-3.8,16-8.4S24.8,7.6,16,7.6z M11.7,17.5
	c-0.3,0.3-0.8,0.6-1.2,0.7c-0.4,0.1-1,0.2-1.7,0.2H7.1l-0.4,2.2H4.9l1.6-8.4H10c1.1,0,1.8,0.3,2.3,0.8c0.5,0.6,0.6,1.3,0.4,2.3
	c-0.1,0.4-0.2,0.8-0.4,1.1C12.2,16.9,12,17.2,11.7,17.5L11.7,17.5z M17,18.5l0.7-3.7c0.1-0.4,0.1-0.7-0.1-0.9
	c-0.1-0.2-0.4-0.2-0.9-0.2h-1.5l-0.9,4.8h-1.8l1.6-8.4H16l-0.4,2.2h1.6c1,0,1.7,0.2,2.1,0.5c0.4,0.4,0.5,0.9,0.4,1.7l-0.8,3.9
	L17,18.5z M27.1,15.5c-0.1,0.4-0.2,0.8-0.4,1.1c-0.2,0.3-0.4,0.7-0.7,0.9c-0.3,0.3-0.8,0.6-1.2,0.7c-0.4,0.1-1,0.2-1.7,0.2h-1.6
	L21,20.7h-1.8l1.6-8.4h3.5c1.1,0,1.8,0.3,2.3,0.8C27.2,13.7,27.3,14.5,27.1,15.5L27.1,15.5z M23.7,13.6h-1.3l-0.7,3.5h1.1
	c0.7,0,1.3-0.1,1.7-0.4c0.4-0.3,0.6-0.7,0.7-1.4c0.1-0.6,0.1-1.1-0.2-1.3C24.9,13.7,24.4,13.6,23.7,13.6L23.7,13.6z"/>
</svg>
